%TF.GenerationSoftware,KiCad,Pcbnew,10.0.1*%
%TF.CreationDate,2026-05-13T11:25:38-07:00*%
%TF.ProjectId,triple-doubler,74726970-6c65-42d6-946f-75626c65722e,rev?*%
%TF.SameCoordinates,Original*%
%TF.FileFunction,Legend,Top*%
%TF.FilePolarity,Positive*%
%FSLAX46Y46*%
G04 Gerber Fmt 4.6, Leading zero omitted, Abs format (unit mm)*
G04 Created by KiCad (PCBNEW 10.0.1) date 2026-05-13 11:25:38*
%MOMM*%
%LPD*%
G01*
G04 APERTURE LIST*
%ADD10C,0.200000*%
%ADD11C,0.150000*%
%ADD12C,0.120000*%
G04 APERTURE END LIST*
D10*
X140898244Y-110717219D02*
X140707768Y-110717219D01*
X140707768Y-110717219D02*
X140612530Y-110764838D01*
X140612530Y-110764838D02*
X140564911Y-110812457D01*
X140564911Y-110812457D02*
X140469673Y-110955314D01*
X140469673Y-110955314D02*
X140422054Y-111145790D01*
X140422054Y-111145790D02*
X140422054Y-111526742D01*
X140422054Y-111526742D02*
X140469673Y-111621980D01*
X140469673Y-111621980D02*
X140517292Y-111669600D01*
X140517292Y-111669600D02*
X140612530Y-111717219D01*
X140612530Y-111717219D02*
X140803006Y-111717219D01*
X140803006Y-111717219D02*
X140898244Y-111669600D01*
X140898244Y-111669600D02*
X140945863Y-111621980D01*
X140945863Y-111621980D02*
X140993482Y-111526742D01*
X140993482Y-111526742D02*
X140993482Y-111288647D01*
X140993482Y-111288647D02*
X140945863Y-111193409D01*
X140945863Y-111193409D02*
X140898244Y-111145790D01*
X140898244Y-111145790D02*
X140803006Y-111098171D01*
X140803006Y-111098171D02*
X140612530Y-111098171D01*
X140612530Y-111098171D02*
X140517292Y-111145790D01*
X140517292Y-111145790D02*
X140469673Y-111193409D01*
X140469673Y-111193409D02*
X140422054Y-111288647D01*
X141612530Y-110717219D02*
X141707768Y-110717219D01*
X141707768Y-110717219D02*
X141803006Y-110764838D01*
X141803006Y-110764838D02*
X141850625Y-110812457D01*
X141850625Y-110812457D02*
X141898244Y-110907695D01*
X141898244Y-110907695D02*
X141945863Y-111098171D01*
X141945863Y-111098171D02*
X141945863Y-111336266D01*
X141945863Y-111336266D02*
X141898244Y-111526742D01*
X141898244Y-111526742D02*
X141850625Y-111621980D01*
X141850625Y-111621980D02*
X141803006Y-111669600D01*
X141803006Y-111669600D02*
X141707768Y-111717219D01*
X141707768Y-111717219D02*
X141612530Y-111717219D01*
X141612530Y-111717219D02*
X141517292Y-111669600D01*
X141517292Y-111669600D02*
X141469673Y-111621980D01*
X141469673Y-111621980D02*
X141422054Y-111526742D01*
X141422054Y-111526742D02*
X141374435Y-111336266D01*
X141374435Y-111336266D02*
X141374435Y-111098171D01*
X141374435Y-111098171D02*
X141422054Y-110907695D01*
X141422054Y-110907695D02*
X141469673Y-110812457D01*
X141469673Y-110812457D02*
X141517292Y-110764838D01*
X141517292Y-110764838D02*
X141612530Y-110717219D01*
X142564911Y-110717219D02*
X142660149Y-110717219D01*
X142660149Y-110717219D02*
X142755387Y-110764838D01*
X142755387Y-110764838D02*
X142803006Y-110812457D01*
X142803006Y-110812457D02*
X142850625Y-110907695D01*
X142850625Y-110907695D02*
X142898244Y-111098171D01*
X142898244Y-111098171D02*
X142898244Y-111336266D01*
X142898244Y-111336266D02*
X142850625Y-111526742D01*
X142850625Y-111526742D02*
X142803006Y-111621980D01*
X142803006Y-111621980D02*
X142755387Y-111669600D01*
X142755387Y-111669600D02*
X142660149Y-111717219D01*
X142660149Y-111717219D02*
X142564911Y-111717219D01*
X142564911Y-111717219D02*
X142469673Y-111669600D01*
X142469673Y-111669600D02*
X142422054Y-111621980D01*
X142422054Y-111621980D02*
X142374435Y-111526742D01*
X142374435Y-111526742D02*
X142326816Y-111336266D01*
X142326816Y-111336266D02*
X142326816Y-111098171D01*
X142326816Y-111098171D02*
X142374435Y-110907695D01*
X142374435Y-110907695D02*
X142422054Y-110812457D01*
X142422054Y-110812457D02*
X142469673Y-110764838D01*
X142469673Y-110764838D02*
X142564911Y-110717219D01*
X143469673Y-111717219D02*
X143374435Y-111669600D01*
X143374435Y-111669600D02*
X143326816Y-111621980D01*
X143326816Y-111621980D02*
X143279197Y-111526742D01*
X143279197Y-111526742D02*
X143279197Y-111241028D01*
X143279197Y-111241028D02*
X143326816Y-111145790D01*
X143326816Y-111145790D02*
X143374435Y-111098171D01*
X143374435Y-111098171D02*
X143469673Y-111050552D01*
X143469673Y-111050552D02*
X143612530Y-111050552D01*
X143612530Y-111050552D02*
X143707768Y-111098171D01*
X143707768Y-111098171D02*
X143755387Y-111145790D01*
X143755387Y-111145790D02*
X143803006Y-111241028D01*
X143803006Y-111241028D02*
X143803006Y-111526742D01*
X143803006Y-111526742D02*
X143755387Y-111621980D01*
X143755387Y-111621980D02*
X143707768Y-111669600D01*
X143707768Y-111669600D02*
X143612530Y-111717219D01*
X143612530Y-111717219D02*
X143469673Y-111717219D01*
X144231578Y-111717219D02*
X144231578Y-110717219D01*
X144660149Y-111717219D02*
X144660149Y-111193409D01*
X144660149Y-111193409D02*
X144612530Y-111098171D01*
X144612530Y-111098171D02*
X144517292Y-111050552D01*
X144517292Y-111050552D02*
X144374435Y-111050552D01*
X144374435Y-111050552D02*
X144279197Y-111098171D01*
X144279197Y-111098171D02*
X144231578Y-111145790D01*
X145136340Y-111717219D02*
X145136340Y-111050552D01*
X145136340Y-111145790D02*
X145183959Y-111098171D01*
X145183959Y-111098171D02*
X145279197Y-111050552D01*
X145279197Y-111050552D02*
X145422054Y-111050552D01*
X145422054Y-111050552D02*
X145517292Y-111098171D01*
X145517292Y-111098171D02*
X145564911Y-111193409D01*
X145564911Y-111193409D02*
X145564911Y-111717219D01*
X145564911Y-111193409D02*
X145612530Y-111098171D01*
X145612530Y-111098171D02*
X145707768Y-111050552D01*
X145707768Y-111050552D02*
X145850625Y-111050552D01*
X145850625Y-111050552D02*
X145945864Y-111098171D01*
X145945864Y-111098171D02*
X145993483Y-111193409D01*
X145993483Y-111193409D02*
X145993483Y-111717219D01*
X147755387Y-111717219D02*
X147183959Y-111717219D01*
X147469673Y-111717219D02*
X147469673Y-110717219D01*
X147469673Y-110717219D02*
X147374435Y-110860076D01*
X147374435Y-110860076D02*
X147279197Y-110955314D01*
X147279197Y-110955314D02*
X147183959Y-111002933D01*
X148183959Y-111621980D02*
X148231578Y-111669600D01*
X148231578Y-111669600D02*
X148183959Y-111717219D01*
X148183959Y-111717219D02*
X148136340Y-111669600D01*
X148136340Y-111669600D02*
X148183959Y-111621980D01*
X148183959Y-111621980D02*
X148183959Y-111717219D01*
X148183959Y-111098171D02*
X148231578Y-111145790D01*
X148231578Y-111145790D02*
X148183959Y-111193409D01*
X148183959Y-111193409D02*
X148136340Y-111145790D01*
X148136340Y-111145790D02*
X148183959Y-111098171D01*
X148183959Y-111098171D02*
X148183959Y-111193409D01*
X149183958Y-111717219D02*
X148612530Y-111717219D01*
X148898244Y-111717219D02*
X148898244Y-110717219D01*
X148898244Y-110717219D02*
X148803006Y-110860076D01*
X148803006Y-110860076D02*
X148707768Y-110955314D01*
X148707768Y-110955314D02*
X148612530Y-111002933D01*
X120893482Y-109917219D02*
X120322054Y-109917219D01*
X120607768Y-109917219D02*
X120607768Y-108917219D01*
X120607768Y-108917219D02*
X120512530Y-109060076D01*
X120512530Y-109060076D02*
X120417292Y-109155314D01*
X120417292Y-109155314D02*
X120322054Y-109202933D01*
X121322054Y-109917219D02*
X121322054Y-108917219D01*
X121417292Y-109536266D02*
X121703006Y-109917219D01*
X121703006Y-109250552D02*
X121322054Y-109631504D01*
X145319673Y-116350552D02*
X145319673Y-117207695D01*
X145319673Y-117207695D02*
X145272054Y-117302933D01*
X145272054Y-117302933D02*
X145176816Y-117350552D01*
X145176816Y-117350552D02*
X145129197Y-117350552D01*
X145319673Y-116017219D02*
X145272054Y-116064838D01*
X145272054Y-116064838D02*
X145319673Y-116112457D01*
X145319673Y-116112457D02*
X145367292Y-116064838D01*
X145367292Y-116064838D02*
X145319673Y-116017219D01*
X145319673Y-116017219D02*
X145319673Y-116112457D01*
X145795863Y-117017219D02*
X145795863Y-116350552D01*
X145795863Y-116445790D02*
X145843482Y-116398171D01*
X145843482Y-116398171D02*
X145938720Y-116350552D01*
X145938720Y-116350552D02*
X146081577Y-116350552D01*
X146081577Y-116350552D02*
X146176815Y-116398171D01*
X146176815Y-116398171D02*
X146224434Y-116493409D01*
X146224434Y-116493409D02*
X146224434Y-117017219D01*
X146224434Y-116493409D02*
X146272053Y-116398171D01*
X146272053Y-116398171D02*
X146367291Y-116350552D01*
X146367291Y-116350552D02*
X146510148Y-116350552D01*
X146510148Y-116350552D02*
X146605387Y-116398171D01*
X146605387Y-116398171D02*
X146653006Y-116493409D01*
X146653006Y-116493409D02*
X146653006Y-117017219D01*
X147510148Y-116969600D02*
X147414910Y-117017219D01*
X147414910Y-117017219D02*
X147224434Y-117017219D01*
X147224434Y-117017219D02*
X147129196Y-116969600D01*
X147129196Y-116969600D02*
X147081577Y-116874361D01*
X147081577Y-116874361D02*
X147081577Y-116493409D01*
X147081577Y-116493409D02*
X147129196Y-116398171D01*
X147129196Y-116398171D02*
X147224434Y-116350552D01*
X147224434Y-116350552D02*
X147414910Y-116350552D01*
X147414910Y-116350552D02*
X147510148Y-116398171D01*
X147510148Y-116398171D02*
X147557767Y-116493409D01*
X147557767Y-116493409D02*
X147557767Y-116588647D01*
X147557767Y-116588647D02*
X147081577Y-116683885D01*
X147986339Y-116350552D02*
X147986339Y-117207695D01*
X147986339Y-117207695D02*
X147938720Y-117302933D01*
X147938720Y-117302933D02*
X147843482Y-117350552D01*
X147843482Y-117350552D02*
X147795863Y-117350552D01*
X147986339Y-116017219D02*
X147938720Y-116064838D01*
X147938720Y-116064838D02*
X147986339Y-116112457D01*
X147986339Y-116112457D02*
X148033958Y-116064838D01*
X148033958Y-116064838D02*
X147986339Y-116017219D01*
X147986339Y-116017219D02*
X147986339Y-116112457D01*
X149176815Y-116112457D02*
X149224434Y-116064838D01*
X149224434Y-116064838D02*
X149319672Y-116017219D01*
X149319672Y-116017219D02*
X149557767Y-116017219D01*
X149557767Y-116017219D02*
X149653005Y-116064838D01*
X149653005Y-116064838D02*
X149700624Y-116112457D01*
X149700624Y-116112457D02*
X149748243Y-116207695D01*
X149748243Y-116207695D02*
X149748243Y-116302933D01*
X149748243Y-116302933D02*
X149700624Y-116445790D01*
X149700624Y-116445790D02*
X149129196Y-117017219D01*
X149129196Y-117017219D02*
X149748243Y-117017219D01*
X150367291Y-116017219D02*
X150462529Y-116017219D01*
X150462529Y-116017219D02*
X150557767Y-116064838D01*
X150557767Y-116064838D02*
X150605386Y-116112457D01*
X150605386Y-116112457D02*
X150653005Y-116207695D01*
X150653005Y-116207695D02*
X150700624Y-116398171D01*
X150700624Y-116398171D02*
X150700624Y-116636266D01*
X150700624Y-116636266D02*
X150653005Y-116826742D01*
X150653005Y-116826742D02*
X150605386Y-116921980D01*
X150605386Y-116921980D02*
X150557767Y-116969600D01*
X150557767Y-116969600D02*
X150462529Y-117017219D01*
X150462529Y-117017219D02*
X150367291Y-117017219D01*
X150367291Y-117017219D02*
X150272053Y-116969600D01*
X150272053Y-116969600D02*
X150224434Y-116921980D01*
X150224434Y-116921980D02*
X150176815Y-116826742D01*
X150176815Y-116826742D02*
X150129196Y-116636266D01*
X150129196Y-116636266D02*
X150129196Y-116398171D01*
X150129196Y-116398171D02*
X150176815Y-116207695D01*
X150176815Y-116207695D02*
X150224434Y-116112457D01*
X150224434Y-116112457D02*
X150272053Y-116064838D01*
X150272053Y-116064838D02*
X150367291Y-116017219D01*
X151081577Y-116112457D02*
X151129196Y-116064838D01*
X151129196Y-116064838D02*
X151224434Y-116017219D01*
X151224434Y-116017219D02*
X151462529Y-116017219D01*
X151462529Y-116017219D02*
X151557767Y-116064838D01*
X151557767Y-116064838D02*
X151605386Y-116112457D01*
X151605386Y-116112457D02*
X151653005Y-116207695D01*
X151653005Y-116207695D02*
X151653005Y-116302933D01*
X151653005Y-116302933D02*
X151605386Y-116445790D01*
X151605386Y-116445790D02*
X151033958Y-117017219D01*
X151033958Y-117017219D02*
X151653005Y-117017219D01*
X152510148Y-116017219D02*
X152319672Y-116017219D01*
X152319672Y-116017219D02*
X152224434Y-116064838D01*
X152224434Y-116064838D02*
X152176815Y-116112457D01*
X152176815Y-116112457D02*
X152081577Y-116255314D01*
X152081577Y-116255314D02*
X152033958Y-116445790D01*
X152033958Y-116445790D02*
X152033958Y-116826742D01*
X152033958Y-116826742D02*
X152081577Y-116921980D01*
X152081577Y-116921980D02*
X152129196Y-116969600D01*
X152129196Y-116969600D02*
X152224434Y-117017219D01*
X152224434Y-117017219D02*
X152414910Y-117017219D01*
X152414910Y-117017219D02*
X152510148Y-116969600D01*
X152510148Y-116969600D02*
X152557767Y-116921980D01*
X152557767Y-116921980D02*
X152605386Y-116826742D01*
X152605386Y-116826742D02*
X152605386Y-116588647D01*
X152605386Y-116588647D02*
X152557767Y-116493409D01*
X152557767Y-116493409D02*
X152510148Y-116445790D01*
X152510148Y-116445790D02*
X152414910Y-116398171D01*
X152414910Y-116398171D02*
X152224434Y-116398171D01*
X152224434Y-116398171D02*
X152129196Y-116445790D01*
X152129196Y-116445790D02*
X152081577Y-116493409D01*
X152081577Y-116493409D02*
X152033958Y-116588647D01*
X135245863Y-101142742D02*
X135703006Y-101142742D01*
X135417292Y-100742742D02*
X135417292Y-101771314D01*
X135417292Y-101771314D02*
X135474435Y-101885600D01*
X135474435Y-101885600D02*
X135588720Y-101942742D01*
X135588720Y-101942742D02*
X135703006Y-101942742D01*
X136103006Y-101942742D02*
X136103006Y-101142742D01*
X136103006Y-101371314D02*
X136160149Y-101257028D01*
X136160149Y-101257028D02*
X136217292Y-101199885D01*
X136217292Y-101199885D02*
X136331577Y-101142742D01*
X136331577Y-101142742D02*
X136445863Y-101142742D01*
X136845863Y-101942742D02*
X136845863Y-101142742D01*
X136845863Y-100742742D02*
X136788720Y-100799885D01*
X136788720Y-100799885D02*
X136845863Y-100857028D01*
X136845863Y-100857028D02*
X136903006Y-100799885D01*
X136903006Y-100799885D02*
X136845863Y-100742742D01*
X136845863Y-100742742D02*
X136845863Y-100857028D01*
X137417292Y-101142742D02*
X137417292Y-102342742D01*
X137417292Y-101199885D02*
X137531578Y-101142742D01*
X137531578Y-101142742D02*
X137760149Y-101142742D01*
X137760149Y-101142742D02*
X137874435Y-101199885D01*
X137874435Y-101199885D02*
X137931578Y-101257028D01*
X137931578Y-101257028D02*
X137988720Y-101371314D01*
X137988720Y-101371314D02*
X137988720Y-101714171D01*
X137988720Y-101714171D02*
X137931578Y-101828457D01*
X137931578Y-101828457D02*
X137874435Y-101885600D01*
X137874435Y-101885600D02*
X137760149Y-101942742D01*
X137760149Y-101942742D02*
X137531578Y-101942742D01*
X137531578Y-101942742D02*
X137417292Y-101885600D01*
X138674434Y-101942742D02*
X138560149Y-101885600D01*
X138560149Y-101885600D02*
X138503006Y-101771314D01*
X138503006Y-101771314D02*
X138503006Y-100742742D01*
X139588720Y-101885600D02*
X139474434Y-101942742D01*
X139474434Y-101942742D02*
X139245863Y-101942742D01*
X139245863Y-101942742D02*
X139131577Y-101885600D01*
X139131577Y-101885600D02*
X139074434Y-101771314D01*
X139074434Y-101771314D02*
X139074434Y-101314171D01*
X139074434Y-101314171D02*
X139131577Y-101199885D01*
X139131577Y-101199885D02*
X139245863Y-101142742D01*
X139245863Y-101142742D02*
X139474434Y-101142742D01*
X139474434Y-101142742D02*
X139588720Y-101199885D01*
X139588720Y-101199885D02*
X139645863Y-101314171D01*
X139645863Y-101314171D02*
X139645863Y-101428457D01*
X139645863Y-101428457D02*
X139074434Y-101542742D01*
X140160148Y-101485600D02*
X141074434Y-101485600D01*
X142160148Y-101942742D02*
X142160148Y-100742742D01*
X142160148Y-101885600D02*
X142045862Y-101942742D01*
X142045862Y-101942742D02*
X141817290Y-101942742D01*
X141817290Y-101942742D02*
X141703005Y-101885600D01*
X141703005Y-101885600D02*
X141645862Y-101828457D01*
X141645862Y-101828457D02*
X141588719Y-101714171D01*
X141588719Y-101714171D02*
X141588719Y-101371314D01*
X141588719Y-101371314D02*
X141645862Y-101257028D01*
X141645862Y-101257028D02*
X141703005Y-101199885D01*
X141703005Y-101199885D02*
X141817290Y-101142742D01*
X141817290Y-101142742D02*
X142045862Y-101142742D01*
X142045862Y-101142742D02*
X142160148Y-101199885D01*
X142903004Y-101942742D02*
X142788719Y-101885600D01*
X142788719Y-101885600D02*
X142731576Y-101828457D01*
X142731576Y-101828457D02*
X142674433Y-101714171D01*
X142674433Y-101714171D02*
X142674433Y-101371314D01*
X142674433Y-101371314D02*
X142731576Y-101257028D01*
X142731576Y-101257028D02*
X142788719Y-101199885D01*
X142788719Y-101199885D02*
X142903004Y-101142742D01*
X142903004Y-101142742D02*
X143074433Y-101142742D01*
X143074433Y-101142742D02*
X143188719Y-101199885D01*
X143188719Y-101199885D02*
X143245862Y-101257028D01*
X143245862Y-101257028D02*
X143303004Y-101371314D01*
X143303004Y-101371314D02*
X143303004Y-101714171D01*
X143303004Y-101714171D02*
X143245862Y-101828457D01*
X143245862Y-101828457D02*
X143188719Y-101885600D01*
X143188719Y-101885600D02*
X143074433Y-101942742D01*
X143074433Y-101942742D02*
X142903004Y-101942742D01*
X144331576Y-101142742D02*
X144331576Y-101942742D01*
X143817290Y-101142742D02*
X143817290Y-101771314D01*
X143817290Y-101771314D02*
X143874433Y-101885600D01*
X143874433Y-101885600D02*
X143988718Y-101942742D01*
X143988718Y-101942742D02*
X144160147Y-101942742D01*
X144160147Y-101942742D02*
X144274433Y-101885600D01*
X144274433Y-101885600D02*
X144331576Y-101828457D01*
X144903004Y-101942742D02*
X144903004Y-100742742D01*
X144903004Y-101199885D02*
X145017290Y-101142742D01*
X145017290Y-101142742D02*
X145245861Y-101142742D01*
X145245861Y-101142742D02*
X145360147Y-101199885D01*
X145360147Y-101199885D02*
X145417290Y-101257028D01*
X145417290Y-101257028D02*
X145474432Y-101371314D01*
X145474432Y-101371314D02*
X145474432Y-101714171D01*
X145474432Y-101714171D02*
X145417290Y-101828457D01*
X145417290Y-101828457D02*
X145360147Y-101885600D01*
X145360147Y-101885600D02*
X145245861Y-101942742D01*
X145245861Y-101942742D02*
X145017290Y-101942742D01*
X145017290Y-101942742D02*
X144903004Y-101885600D01*
X146160146Y-101942742D02*
X146045861Y-101885600D01*
X146045861Y-101885600D02*
X145988718Y-101771314D01*
X145988718Y-101771314D02*
X145988718Y-100742742D01*
X147074432Y-101885600D02*
X146960146Y-101942742D01*
X146960146Y-101942742D02*
X146731575Y-101942742D01*
X146731575Y-101942742D02*
X146617289Y-101885600D01*
X146617289Y-101885600D02*
X146560146Y-101771314D01*
X146560146Y-101771314D02*
X146560146Y-101314171D01*
X146560146Y-101314171D02*
X146617289Y-101199885D01*
X146617289Y-101199885D02*
X146731575Y-101142742D01*
X146731575Y-101142742D02*
X146960146Y-101142742D01*
X146960146Y-101142742D02*
X147074432Y-101199885D01*
X147074432Y-101199885D02*
X147131575Y-101314171D01*
X147131575Y-101314171D02*
X147131575Y-101428457D01*
X147131575Y-101428457D02*
X146560146Y-101542742D01*
X148560146Y-101142742D02*
X148560146Y-102342742D01*
X148560146Y-101199885D02*
X148674432Y-101142742D01*
X148674432Y-101142742D02*
X148903003Y-101142742D01*
X148903003Y-101142742D02*
X149017289Y-101199885D01*
X149017289Y-101199885D02*
X149074432Y-101257028D01*
X149074432Y-101257028D02*
X149131574Y-101371314D01*
X149131574Y-101371314D02*
X149131574Y-101714171D01*
X149131574Y-101714171D02*
X149074432Y-101828457D01*
X149074432Y-101828457D02*
X149017289Y-101885600D01*
X149017289Y-101885600D02*
X148903003Y-101942742D01*
X148903003Y-101942742D02*
X148674432Y-101942742D01*
X148674432Y-101942742D02*
X148560146Y-101885600D01*
X150160146Y-101942742D02*
X150160146Y-101314171D01*
X150160146Y-101314171D02*
X150103003Y-101199885D01*
X150103003Y-101199885D02*
X149988717Y-101142742D01*
X149988717Y-101142742D02*
X149760146Y-101142742D01*
X149760146Y-101142742D02*
X149645860Y-101199885D01*
X150160146Y-101885600D02*
X150045860Y-101942742D01*
X150045860Y-101942742D02*
X149760146Y-101942742D01*
X149760146Y-101942742D02*
X149645860Y-101885600D01*
X149645860Y-101885600D02*
X149588717Y-101771314D01*
X149588717Y-101771314D02*
X149588717Y-101657028D01*
X149588717Y-101657028D02*
X149645860Y-101542742D01*
X149645860Y-101542742D02*
X149760146Y-101485600D01*
X149760146Y-101485600D02*
X150045860Y-101485600D01*
X150045860Y-101485600D02*
X150160146Y-101428457D01*
X150560145Y-101142742D02*
X151017288Y-101142742D01*
X150731574Y-100742742D02*
X150731574Y-101771314D01*
X150731574Y-101771314D02*
X150788717Y-101885600D01*
X150788717Y-101885600D02*
X150903002Y-101942742D01*
X150903002Y-101942742D02*
X151017288Y-101942742D01*
X151931574Y-101885600D02*
X151817288Y-101942742D01*
X151817288Y-101942742D02*
X151588716Y-101942742D01*
X151588716Y-101942742D02*
X151474431Y-101885600D01*
X151474431Y-101885600D02*
X151417288Y-101828457D01*
X151417288Y-101828457D02*
X151360145Y-101714171D01*
X151360145Y-101714171D02*
X151360145Y-101371314D01*
X151360145Y-101371314D02*
X151417288Y-101257028D01*
X151417288Y-101257028D02*
X151474431Y-101199885D01*
X151474431Y-101199885D02*
X151588716Y-101142742D01*
X151588716Y-101142742D02*
X151817288Y-101142742D01*
X151817288Y-101142742D02*
X151931574Y-101199885D01*
X152445859Y-101942742D02*
X152445859Y-100742742D01*
X152960145Y-101942742D02*
X152960145Y-101314171D01*
X152960145Y-101314171D02*
X152903002Y-101199885D01*
X152903002Y-101199885D02*
X152788716Y-101142742D01*
X152788716Y-101142742D02*
X152617287Y-101142742D01*
X152617287Y-101142742D02*
X152503002Y-101199885D01*
X152503002Y-101199885D02*
X152445859Y-101257028D01*
X120033333Y-107552219D02*
X119700000Y-107076028D01*
X119461905Y-107552219D02*
X119461905Y-106552219D01*
X119461905Y-106552219D02*
X119842857Y-106552219D01*
X119842857Y-106552219D02*
X119938095Y-106599838D01*
X119938095Y-106599838D02*
X119985714Y-106647457D01*
X119985714Y-106647457D02*
X120033333Y-106742695D01*
X120033333Y-106742695D02*
X120033333Y-106885552D01*
X120033333Y-106885552D02*
X119985714Y-106980790D01*
X119985714Y-106980790D02*
X119938095Y-107028409D01*
X119938095Y-107028409D02*
X119842857Y-107076028D01*
X119842857Y-107076028D02*
X119461905Y-107076028D01*
X120414286Y-106647457D02*
X120461905Y-106599838D01*
X120461905Y-106599838D02*
X120557143Y-106552219D01*
X120557143Y-106552219D02*
X120795238Y-106552219D01*
X120795238Y-106552219D02*
X120890476Y-106599838D01*
X120890476Y-106599838D02*
X120938095Y-106647457D01*
X120938095Y-106647457D02*
X120985714Y-106742695D01*
X120985714Y-106742695D02*
X120985714Y-106837933D01*
X120985714Y-106837933D02*
X120938095Y-106980790D01*
X120938095Y-106980790D02*
X120366667Y-107552219D01*
X120366667Y-107552219D02*
X120985714Y-107552219D01*
D11*
X143688095Y-108104819D02*
X144259523Y-108104819D01*
X143973809Y-109104819D02*
X143973809Y-108104819D01*
X145116666Y-109104819D02*
X144545238Y-109104819D01*
X144830952Y-109104819D02*
X144830952Y-108104819D01*
X144830952Y-108104819D02*
X144735714Y-108247676D01*
X144735714Y-108247676D02*
X144640476Y-108342914D01*
X144640476Y-108342914D02*
X144545238Y-108390533D01*
X154957142Y-100054819D02*
X154385714Y-100054819D01*
X154671428Y-100054819D02*
X154671428Y-99054819D01*
X154671428Y-99054819D02*
X154576190Y-99197676D01*
X154576190Y-99197676D02*
X154480952Y-99292914D01*
X154480952Y-99292914D02*
X154385714Y-99340533D01*
X155385714Y-99388152D02*
X155385714Y-100054819D01*
X155385714Y-99483390D02*
X155433333Y-99435771D01*
X155433333Y-99435771D02*
X155528571Y-99388152D01*
X155528571Y-99388152D02*
X155671428Y-99388152D01*
X155671428Y-99388152D02*
X155766666Y-99435771D01*
X155766666Y-99435771D02*
X155814285Y-99531009D01*
X155814285Y-99531009D02*
X155814285Y-100054819D01*
X156195238Y-99054819D02*
X156861904Y-99054819D01*
X156861904Y-99054819D02*
X156433333Y-100054819D01*
X157671428Y-99388152D02*
X157671428Y-100054819D01*
X157433333Y-99007200D02*
X157195238Y-99721485D01*
X157195238Y-99721485D02*
X157814285Y-99721485D01*
X158623809Y-99054819D02*
X158433333Y-99054819D01*
X158433333Y-99054819D02*
X158338095Y-99102438D01*
X158338095Y-99102438D02*
X158290476Y-99150057D01*
X158290476Y-99150057D02*
X158195238Y-99292914D01*
X158195238Y-99292914D02*
X158147619Y-99483390D01*
X158147619Y-99483390D02*
X158147619Y-99864342D01*
X158147619Y-99864342D02*
X158195238Y-99959580D01*
X158195238Y-99959580D02*
X158242857Y-100007200D01*
X158242857Y-100007200D02*
X158338095Y-100054819D01*
X158338095Y-100054819D02*
X158528571Y-100054819D01*
X158528571Y-100054819D02*
X158623809Y-100007200D01*
X158623809Y-100007200D02*
X158671428Y-99959580D01*
X158671428Y-99959580D02*
X158719047Y-99864342D01*
X158719047Y-99864342D02*
X158719047Y-99626247D01*
X158719047Y-99626247D02*
X158671428Y-99531009D01*
X158671428Y-99531009D02*
X158623809Y-99483390D01*
X158623809Y-99483390D02*
X158528571Y-99435771D01*
X158528571Y-99435771D02*
X158338095Y-99435771D01*
X158338095Y-99435771D02*
X158242857Y-99483390D01*
X158242857Y-99483390D02*
X158195238Y-99531009D01*
X158195238Y-99531009D02*
X158147619Y-99626247D01*
X159576190Y-100054819D02*
X159576190Y-99531009D01*
X159576190Y-99531009D02*
X159528571Y-99435771D01*
X159528571Y-99435771D02*
X159433333Y-99388152D01*
X159433333Y-99388152D02*
X159242857Y-99388152D01*
X159242857Y-99388152D02*
X159147619Y-99435771D01*
X159576190Y-100007200D02*
X159480952Y-100054819D01*
X159480952Y-100054819D02*
X159242857Y-100054819D01*
X159242857Y-100054819D02*
X159147619Y-100007200D01*
X159147619Y-100007200D02*
X159100000Y-99911961D01*
X159100000Y-99911961D02*
X159100000Y-99816723D01*
X159100000Y-99816723D02*
X159147619Y-99721485D01*
X159147619Y-99721485D02*
X159242857Y-99673866D01*
X159242857Y-99673866D02*
X159480952Y-99673866D01*
X159480952Y-99673866D02*
X159576190Y-99626247D01*
X160719048Y-99054819D02*
X161338095Y-99054819D01*
X161338095Y-99054819D02*
X161004762Y-99435771D01*
X161004762Y-99435771D02*
X161147619Y-99435771D01*
X161147619Y-99435771D02*
X161242857Y-99483390D01*
X161242857Y-99483390D02*
X161290476Y-99531009D01*
X161290476Y-99531009D02*
X161338095Y-99626247D01*
X161338095Y-99626247D02*
X161338095Y-99864342D01*
X161338095Y-99864342D02*
X161290476Y-99959580D01*
X161290476Y-99959580D02*
X161242857Y-100007200D01*
X161242857Y-100007200D02*
X161147619Y-100054819D01*
X161147619Y-100054819D02*
X160861905Y-100054819D01*
X160861905Y-100054819D02*
X160766667Y-100007200D01*
X160766667Y-100007200D02*
X160719048Y-99959580D01*
X161766667Y-99959580D02*
X161814286Y-100007200D01*
X161814286Y-100007200D02*
X161766667Y-100054819D01*
X161766667Y-100054819D02*
X161719048Y-100007200D01*
X161719048Y-100007200D02*
X161766667Y-99959580D01*
X161766667Y-99959580D02*
X161766667Y-100054819D01*
X162147619Y-99054819D02*
X162766666Y-99054819D01*
X162766666Y-99054819D02*
X162433333Y-99435771D01*
X162433333Y-99435771D02*
X162576190Y-99435771D01*
X162576190Y-99435771D02*
X162671428Y-99483390D01*
X162671428Y-99483390D02*
X162719047Y-99531009D01*
X162719047Y-99531009D02*
X162766666Y-99626247D01*
X162766666Y-99626247D02*
X162766666Y-99864342D01*
X162766666Y-99864342D02*
X162719047Y-99959580D01*
X162719047Y-99959580D02*
X162671428Y-100007200D01*
X162671428Y-100007200D02*
X162576190Y-100054819D01*
X162576190Y-100054819D02*
X162290476Y-100054819D01*
X162290476Y-100054819D02*
X162195238Y-100007200D01*
X162195238Y-100007200D02*
X162147619Y-99959580D01*
X163100000Y-99388152D02*
X163338095Y-100054819D01*
X163338095Y-100054819D02*
X163576190Y-99388152D01*
X164909524Y-99054819D02*
X165004762Y-99054819D01*
X165004762Y-99054819D02*
X165100000Y-99102438D01*
X165100000Y-99102438D02*
X165147619Y-99150057D01*
X165147619Y-99150057D02*
X165195238Y-99245295D01*
X165195238Y-99245295D02*
X165242857Y-99435771D01*
X165242857Y-99435771D02*
X165242857Y-99673866D01*
X165242857Y-99673866D02*
X165195238Y-99864342D01*
X165195238Y-99864342D02*
X165147619Y-99959580D01*
X165147619Y-99959580D02*
X165100000Y-100007200D01*
X165100000Y-100007200D02*
X165004762Y-100054819D01*
X165004762Y-100054819D02*
X164909524Y-100054819D01*
X164909524Y-100054819D02*
X164814286Y-100007200D01*
X164814286Y-100007200D02*
X164766667Y-99959580D01*
X164766667Y-99959580D02*
X164719048Y-99864342D01*
X164719048Y-99864342D02*
X164671429Y-99673866D01*
X164671429Y-99673866D02*
X164671429Y-99435771D01*
X164671429Y-99435771D02*
X164719048Y-99245295D01*
X164719048Y-99245295D02*
X164766667Y-99150057D01*
X164766667Y-99150057D02*
X164814286Y-99102438D01*
X164814286Y-99102438D02*
X164909524Y-99054819D01*
X165671429Y-99959580D02*
X165719048Y-100007200D01*
X165719048Y-100007200D02*
X165671429Y-100054819D01*
X165671429Y-100054819D02*
X165623810Y-100007200D01*
X165623810Y-100007200D02*
X165671429Y-99959580D01*
X165671429Y-99959580D02*
X165671429Y-100054819D01*
X166623809Y-99054819D02*
X166147619Y-99054819D01*
X166147619Y-99054819D02*
X166100000Y-99531009D01*
X166100000Y-99531009D02*
X166147619Y-99483390D01*
X166147619Y-99483390D02*
X166242857Y-99435771D01*
X166242857Y-99435771D02*
X166480952Y-99435771D01*
X166480952Y-99435771D02*
X166576190Y-99483390D01*
X166576190Y-99483390D02*
X166623809Y-99531009D01*
X166623809Y-99531009D02*
X166671428Y-99626247D01*
X166671428Y-99626247D02*
X166671428Y-99864342D01*
X166671428Y-99864342D02*
X166623809Y-99959580D01*
X166623809Y-99959580D02*
X166576190Y-100007200D01*
X166576190Y-100007200D02*
X166480952Y-100054819D01*
X166480952Y-100054819D02*
X166242857Y-100054819D01*
X166242857Y-100054819D02*
X166147619Y-100007200D01*
X166147619Y-100007200D02*
X166100000Y-99959580D01*
X167004762Y-99054819D02*
X167242857Y-100054819D01*
X167242857Y-100054819D02*
X167433333Y-99340533D01*
X167433333Y-99340533D02*
X167623809Y-100054819D01*
X167623809Y-100054819D02*
X167861905Y-99054819D01*
D10*
X159351905Y-102452219D02*
X159351905Y-101452219D01*
X159351905Y-101452219D02*
X159590000Y-101452219D01*
X159590000Y-101452219D02*
X159732857Y-101499838D01*
X159732857Y-101499838D02*
X159828095Y-101595076D01*
X159828095Y-101595076D02*
X159875714Y-101690314D01*
X159875714Y-101690314D02*
X159923333Y-101880790D01*
X159923333Y-101880790D02*
X159923333Y-102023647D01*
X159923333Y-102023647D02*
X159875714Y-102214123D01*
X159875714Y-102214123D02*
X159828095Y-102309361D01*
X159828095Y-102309361D02*
X159732857Y-102404600D01*
X159732857Y-102404600D02*
X159590000Y-102452219D01*
X159590000Y-102452219D02*
X159351905Y-102452219D01*
X160304286Y-101547457D02*
X160351905Y-101499838D01*
X160351905Y-101499838D02*
X160447143Y-101452219D01*
X160447143Y-101452219D02*
X160685238Y-101452219D01*
X160685238Y-101452219D02*
X160780476Y-101499838D01*
X160780476Y-101499838D02*
X160828095Y-101547457D01*
X160828095Y-101547457D02*
X160875714Y-101642695D01*
X160875714Y-101642695D02*
X160875714Y-101737933D01*
X160875714Y-101737933D02*
X160828095Y-101880790D01*
X160828095Y-101880790D02*
X160256667Y-102452219D01*
X160256667Y-102452219D02*
X160875714Y-102452219D01*
D11*
X129654819Y-109795238D02*
X129654819Y-110366666D01*
X129654819Y-110080952D02*
X128654819Y-110080952D01*
X128654819Y-110080952D02*
X128797676Y-110176190D01*
X128797676Y-110176190D02*
X128892914Y-110271428D01*
X128892914Y-110271428D02*
X128940533Y-110366666D01*
X129083390Y-109223809D02*
X129035771Y-109319047D01*
X129035771Y-109319047D02*
X128988152Y-109366666D01*
X128988152Y-109366666D02*
X128892914Y-109414285D01*
X128892914Y-109414285D02*
X128845295Y-109414285D01*
X128845295Y-109414285D02*
X128750057Y-109366666D01*
X128750057Y-109366666D02*
X128702438Y-109319047D01*
X128702438Y-109319047D02*
X128654819Y-109223809D01*
X128654819Y-109223809D02*
X128654819Y-109033333D01*
X128654819Y-109033333D02*
X128702438Y-108938095D01*
X128702438Y-108938095D02*
X128750057Y-108890476D01*
X128750057Y-108890476D02*
X128845295Y-108842857D01*
X128845295Y-108842857D02*
X128892914Y-108842857D01*
X128892914Y-108842857D02*
X128988152Y-108890476D01*
X128988152Y-108890476D02*
X129035771Y-108938095D01*
X129035771Y-108938095D02*
X129083390Y-109033333D01*
X129083390Y-109033333D02*
X129083390Y-109223809D01*
X129083390Y-109223809D02*
X129131009Y-109319047D01*
X129131009Y-109319047D02*
X129178628Y-109366666D01*
X129178628Y-109366666D02*
X129273866Y-109414285D01*
X129273866Y-109414285D02*
X129464342Y-109414285D01*
X129464342Y-109414285D02*
X129559580Y-109366666D01*
X129559580Y-109366666D02*
X129607200Y-109319047D01*
X129607200Y-109319047D02*
X129654819Y-109223809D01*
X129654819Y-109223809D02*
X129654819Y-109033333D01*
X129654819Y-109033333D02*
X129607200Y-108938095D01*
X129607200Y-108938095D02*
X129559580Y-108890476D01*
X129559580Y-108890476D02*
X129464342Y-108842857D01*
X129464342Y-108842857D02*
X129273866Y-108842857D01*
X129273866Y-108842857D02*
X129178628Y-108890476D01*
X129178628Y-108890476D02*
X129131009Y-108938095D01*
X129131009Y-108938095D02*
X129083390Y-109033333D01*
X128654819Y-108223809D02*
X128654819Y-108128571D01*
X128654819Y-108128571D02*
X128702438Y-108033333D01*
X128702438Y-108033333D02*
X128750057Y-107985714D01*
X128750057Y-107985714D02*
X128845295Y-107938095D01*
X128845295Y-107938095D02*
X129035771Y-107890476D01*
X129035771Y-107890476D02*
X129273866Y-107890476D01*
X129273866Y-107890476D02*
X129464342Y-107938095D01*
X129464342Y-107938095D02*
X129559580Y-107985714D01*
X129559580Y-107985714D02*
X129607200Y-108033333D01*
X129607200Y-108033333D02*
X129654819Y-108128571D01*
X129654819Y-108128571D02*
X129654819Y-108223809D01*
X129654819Y-108223809D02*
X129607200Y-108319047D01*
X129607200Y-108319047D02*
X129559580Y-108366666D01*
X129559580Y-108366666D02*
X129464342Y-108414285D01*
X129464342Y-108414285D02*
X129273866Y-108461904D01*
X129273866Y-108461904D02*
X129035771Y-108461904D01*
X129035771Y-108461904D02*
X128845295Y-108414285D01*
X128845295Y-108414285D02*
X128750057Y-108366666D01*
X128750057Y-108366666D02*
X128702438Y-108319047D01*
X128702438Y-108319047D02*
X128654819Y-108223809D01*
X129654819Y-106176190D02*
X129654819Y-106747618D01*
X129654819Y-106461904D02*
X128654819Y-106461904D01*
X128654819Y-106461904D02*
X128797676Y-106557142D01*
X128797676Y-106557142D02*
X128892914Y-106652380D01*
X128892914Y-106652380D02*
X128940533Y-106747618D01*
X128654819Y-105842856D02*
X129654819Y-105604761D01*
X129654819Y-105604761D02*
X128940533Y-105414285D01*
X128940533Y-105414285D02*
X129654819Y-105223809D01*
X129654819Y-105223809D02*
X128654819Y-104985714D01*
X131954819Y-108266666D02*
X131478628Y-108599999D01*
X131954819Y-108838094D02*
X130954819Y-108838094D01*
X130954819Y-108838094D02*
X130954819Y-108457142D01*
X130954819Y-108457142D02*
X131002438Y-108361904D01*
X131002438Y-108361904D02*
X131050057Y-108314285D01*
X131050057Y-108314285D02*
X131145295Y-108266666D01*
X131145295Y-108266666D02*
X131288152Y-108266666D01*
X131288152Y-108266666D02*
X131383390Y-108314285D01*
X131383390Y-108314285D02*
X131431009Y-108361904D01*
X131431009Y-108361904D02*
X131478628Y-108457142D01*
X131478628Y-108457142D02*
X131478628Y-108838094D01*
X131954819Y-107314285D02*
X131954819Y-107885713D01*
X131954819Y-107599999D02*
X130954819Y-107599999D01*
X130954819Y-107599999D02*
X131097676Y-107695237D01*
X131097676Y-107695237D02*
X131192914Y-107790475D01*
X131192914Y-107790475D02*
X131240533Y-107885713D01*
X116404761Y-102874819D02*
X115833333Y-102874819D01*
X116119047Y-102874819D02*
X116119047Y-101874819D01*
X116119047Y-101874819D02*
X116023809Y-102017676D01*
X116023809Y-102017676D02*
X115928571Y-102112914D01*
X115928571Y-102112914D02*
X115833333Y-102160533D01*
X117261904Y-102208152D02*
X117261904Y-102874819D01*
X116833333Y-102208152D02*
X116833333Y-102731961D01*
X116833333Y-102731961D02*
X116880952Y-102827200D01*
X116880952Y-102827200D02*
X116976190Y-102874819D01*
X116976190Y-102874819D02*
X117119047Y-102874819D01*
X117119047Y-102874819D02*
X117214285Y-102827200D01*
X117214285Y-102827200D02*
X117261904Y-102779580D01*
X117595238Y-102208152D02*
X117976190Y-102208152D01*
X117738095Y-102874819D02*
X117738095Y-102017676D01*
X117738095Y-102017676D02*
X117785714Y-101922438D01*
X117785714Y-101922438D02*
X117880952Y-101874819D01*
X117880952Y-101874819D02*
X117976190Y-101874819D01*
X119785714Y-101827200D02*
X118928572Y-103112914D01*
X120833334Y-101970057D02*
X120880953Y-101922438D01*
X120880953Y-101922438D02*
X120976191Y-101874819D01*
X120976191Y-101874819D02*
X121214286Y-101874819D01*
X121214286Y-101874819D02*
X121309524Y-101922438D01*
X121309524Y-101922438D02*
X121357143Y-101970057D01*
X121357143Y-101970057D02*
X121404762Y-102065295D01*
X121404762Y-102065295D02*
X121404762Y-102160533D01*
X121404762Y-102160533D02*
X121357143Y-102303390D01*
X121357143Y-102303390D02*
X120785715Y-102874819D01*
X120785715Y-102874819D02*
X121404762Y-102874819D01*
X122309524Y-101874819D02*
X121833334Y-101874819D01*
X121833334Y-101874819D02*
X121785715Y-102351009D01*
X121785715Y-102351009D02*
X121833334Y-102303390D01*
X121833334Y-102303390D02*
X121928572Y-102255771D01*
X121928572Y-102255771D02*
X122166667Y-102255771D01*
X122166667Y-102255771D02*
X122261905Y-102303390D01*
X122261905Y-102303390D02*
X122309524Y-102351009D01*
X122309524Y-102351009D02*
X122357143Y-102446247D01*
X122357143Y-102446247D02*
X122357143Y-102684342D01*
X122357143Y-102684342D02*
X122309524Y-102779580D01*
X122309524Y-102779580D02*
X122261905Y-102827200D01*
X122261905Y-102827200D02*
X122166667Y-102874819D01*
X122166667Y-102874819D02*
X121928572Y-102874819D01*
X121928572Y-102874819D02*
X121833334Y-102827200D01*
X121833334Y-102827200D02*
X121785715Y-102779580D01*
X122976191Y-101874819D02*
X123071429Y-101874819D01*
X123071429Y-101874819D02*
X123166667Y-101922438D01*
X123166667Y-101922438D02*
X123214286Y-101970057D01*
X123214286Y-101970057D02*
X123261905Y-102065295D01*
X123261905Y-102065295D02*
X123309524Y-102255771D01*
X123309524Y-102255771D02*
X123309524Y-102493866D01*
X123309524Y-102493866D02*
X123261905Y-102684342D01*
X123261905Y-102684342D02*
X123214286Y-102779580D01*
X123214286Y-102779580D02*
X123166667Y-102827200D01*
X123166667Y-102827200D02*
X123071429Y-102874819D01*
X123071429Y-102874819D02*
X122976191Y-102874819D01*
X122976191Y-102874819D02*
X122880953Y-102827200D01*
X122880953Y-102827200D02*
X122833334Y-102779580D01*
X122833334Y-102779580D02*
X122785715Y-102684342D01*
X122785715Y-102684342D02*
X122738096Y-102493866D01*
X122738096Y-102493866D02*
X122738096Y-102255771D01*
X122738096Y-102255771D02*
X122785715Y-102065295D01*
X122785715Y-102065295D02*
X122833334Y-101970057D01*
X122833334Y-101970057D02*
X122880953Y-101922438D01*
X122880953Y-101922438D02*
X122976191Y-101874819D01*
X123595239Y-101874819D02*
X123928572Y-102874819D01*
X123928572Y-102874819D02*
X124261905Y-101874819D01*
D10*
X119833333Y-100356980D02*
X119785714Y-100404600D01*
X119785714Y-100404600D02*
X119642857Y-100452219D01*
X119642857Y-100452219D02*
X119547619Y-100452219D01*
X119547619Y-100452219D02*
X119404762Y-100404600D01*
X119404762Y-100404600D02*
X119309524Y-100309361D01*
X119309524Y-100309361D02*
X119261905Y-100214123D01*
X119261905Y-100214123D02*
X119214286Y-100023647D01*
X119214286Y-100023647D02*
X119214286Y-99880790D01*
X119214286Y-99880790D02*
X119261905Y-99690314D01*
X119261905Y-99690314D02*
X119309524Y-99595076D01*
X119309524Y-99595076D02*
X119404762Y-99499838D01*
X119404762Y-99499838D02*
X119547619Y-99452219D01*
X119547619Y-99452219D02*
X119642857Y-99452219D01*
X119642857Y-99452219D02*
X119785714Y-99499838D01*
X119785714Y-99499838D02*
X119833333Y-99547457D01*
X120785714Y-100452219D02*
X120214286Y-100452219D01*
X120500000Y-100452219D02*
X120500000Y-99452219D01*
X120500000Y-99452219D02*
X120404762Y-99595076D01*
X120404762Y-99595076D02*
X120309524Y-99690314D01*
X120309524Y-99690314D02*
X120214286Y-99737933D01*
D11*
X117114761Y-117354819D02*
X116781428Y-116878628D01*
X116543333Y-117354819D02*
X116543333Y-116354819D01*
X116543333Y-116354819D02*
X116924285Y-116354819D01*
X116924285Y-116354819D02*
X117019523Y-116402438D01*
X117019523Y-116402438D02*
X117067142Y-116450057D01*
X117067142Y-116450057D02*
X117114761Y-116545295D01*
X117114761Y-116545295D02*
X117114761Y-116688152D01*
X117114761Y-116688152D02*
X117067142Y-116783390D01*
X117067142Y-116783390D02*
X117019523Y-116831009D01*
X117019523Y-116831009D02*
X116924285Y-116878628D01*
X116924285Y-116878628D02*
X116543333Y-116878628D01*
X117400476Y-116354819D02*
X117733809Y-117354819D01*
X117733809Y-117354819D02*
X118067142Y-116354819D01*
X118924285Y-117354819D02*
X118352857Y-117354819D01*
X118638571Y-117354819D02*
X118638571Y-116354819D01*
X118638571Y-116354819D02*
X118543333Y-116497676D01*
X118543333Y-116497676D02*
X118448095Y-116592914D01*
X118448095Y-116592914D02*
X118352857Y-116640533D01*
X115886190Y-112254819D02*
X115886190Y-111254819D01*
X115886190Y-111254819D02*
X116219523Y-111969104D01*
X116219523Y-111969104D02*
X116552856Y-111254819D01*
X116552856Y-111254819D02*
X116552856Y-112254819D01*
X117219523Y-111254819D02*
X117409999Y-111254819D01*
X117409999Y-111254819D02*
X117505237Y-111302438D01*
X117505237Y-111302438D02*
X117600475Y-111397676D01*
X117600475Y-111397676D02*
X117648094Y-111588152D01*
X117648094Y-111588152D02*
X117648094Y-111921485D01*
X117648094Y-111921485D02*
X117600475Y-112111961D01*
X117600475Y-112111961D02*
X117505237Y-112207200D01*
X117505237Y-112207200D02*
X117409999Y-112254819D01*
X117409999Y-112254819D02*
X117219523Y-112254819D01*
X117219523Y-112254819D02*
X117124285Y-112207200D01*
X117124285Y-112207200D02*
X117029047Y-112111961D01*
X117029047Y-112111961D02*
X116981428Y-111921485D01*
X116981428Y-111921485D02*
X116981428Y-111588152D01*
X116981428Y-111588152D02*
X117029047Y-111397676D01*
X117029047Y-111397676D02*
X117124285Y-111302438D01*
X117124285Y-111302438D02*
X117219523Y-111254819D01*
X117933809Y-111254819D02*
X118267142Y-112254819D01*
X118267142Y-112254819D02*
X118600475Y-111254819D01*
X119648095Y-111350057D02*
X119695714Y-111302438D01*
X119695714Y-111302438D02*
X119790952Y-111254819D01*
X119790952Y-111254819D02*
X120029047Y-111254819D01*
X120029047Y-111254819D02*
X120124285Y-111302438D01*
X120124285Y-111302438D02*
X120171904Y-111350057D01*
X120171904Y-111350057D02*
X120219523Y-111445295D01*
X120219523Y-111445295D02*
X120219523Y-111540533D01*
X120219523Y-111540533D02*
X120171904Y-111683390D01*
X120171904Y-111683390D02*
X119600476Y-112254819D01*
X119600476Y-112254819D02*
X120219523Y-112254819D01*
X121124285Y-111254819D02*
X120648095Y-111254819D01*
X120648095Y-111254819D02*
X120600476Y-111731009D01*
X120600476Y-111731009D02*
X120648095Y-111683390D01*
X120648095Y-111683390D02*
X120743333Y-111635771D01*
X120743333Y-111635771D02*
X120981428Y-111635771D01*
X120981428Y-111635771D02*
X121076666Y-111683390D01*
X121076666Y-111683390D02*
X121124285Y-111731009D01*
X121124285Y-111731009D02*
X121171904Y-111826247D01*
X121171904Y-111826247D02*
X121171904Y-112064342D01*
X121171904Y-112064342D02*
X121124285Y-112159580D01*
X121124285Y-112159580D02*
X121076666Y-112207200D01*
X121076666Y-112207200D02*
X120981428Y-112254819D01*
X120981428Y-112254819D02*
X120743333Y-112254819D01*
X120743333Y-112254819D02*
X120648095Y-112207200D01*
X120648095Y-112207200D02*
X120600476Y-112159580D01*
X121790952Y-111254819D02*
X121886190Y-111254819D01*
X121886190Y-111254819D02*
X121981428Y-111302438D01*
X121981428Y-111302438D02*
X122029047Y-111350057D01*
X122029047Y-111350057D02*
X122076666Y-111445295D01*
X122076666Y-111445295D02*
X122124285Y-111635771D01*
X122124285Y-111635771D02*
X122124285Y-111873866D01*
X122124285Y-111873866D02*
X122076666Y-112064342D01*
X122076666Y-112064342D02*
X122029047Y-112159580D01*
X122029047Y-112159580D02*
X121981428Y-112207200D01*
X121981428Y-112207200D02*
X121886190Y-112254819D01*
X121886190Y-112254819D02*
X121790952Y-112254819D01*
X121790952Y-112254819D02*
X121695714Y-112207200D01*
X121695714Y-112207200D02*
X121648095Y-112159580D01*
X121648095Y-112159580D02*
X121600476Y-112064342D01*
X121600476Y-112064342D02*
X121552857Y-111873866D01*
X121552857Y-111873866D02*
X121552857Y-111635771D01*
X121552857Y-111635771D02*
X121600476Y-111445295D01*
X121600476Y-111445295D02*
X121648095Y-111350057D01*
X121648095Y-111350057D02*
X121695714Y-111302438D01*
X121695714Y-111302438D02*
X121790952Y-111254819D01*
X122410000Y-111254819D02*
X122743333Y-112254819D01*
X122743333Y-112254819D02*
X123076666Y-111254819D01*
X108056666Y-103714819D02*
X108056666Y-104429104D01*
X108056666Y-104429104D02*
X108009047Y-104571961D01*
X108009047Y-104571961D02*
X107913809Y-104667200D01*
X107913809Y-104667200D02*
X107770952Y-104714819D01*
X107770952Y-104714819D02*
X107675714Y-104714819D01*
X109056666Y-104714819D02*
X108485238Y-104714819D01*
X108770952Y-104714819D02*
X108770952Y-103714819D01*
X108770952Y-103714819D02*
X108675714Y-103857676D01*
X108675714Y-103857676D02*
X108580476Y-103952914D01*
X108580476Y-103952914D02*
X108485238Y-104000533D01*
X107366190Y-112794819D02*
X107032857Y-112318628D01*
X106794762Y-112794819D02*
X106794762Y-111794819D01*
X106794762Y-111794819D02*
X107175714Y-111794819D01*
X107175714Y-111794819D02*
X107270952Y-111842438D01*
X107270952Y-111842438D02*
X107318571Y-111890057D01*
X107318571Y-111890057D02*
X107366190Y-111985295D01*
X107366190Y-111985295D02*
X107366190Y-112128152D01*
X107366190Y-112128152D02*
X107318571Y-112223390D01*
X107318571Y-112223390D02*
X107270952Y-112271009D01*
X107270952Y-112271009D02*
X107175714Y-112318628D01*
X107175714Y-112318628D02*
X106794762Y-112318628D01*
X108080476Y-111794819D02*
X108080476Y-112509104D01*
X108080476Y-112509104D02*
X108032857Y-112651961D01*
X108032857Y-112651961D02*
X107937619Y-112747200D01*
X107937619Y-112747200D02*
X107794762Y-112794819D01*
X107794762Y-112794819D02*
X107699524Y-112794819D01*
X109080476Y-112794819D02*
X108509048Y-112794819D01*
X108794762Y-112794819D02*
X108794762Y-111794819D01*
X108794762Y-111794819D02*
X108699524Y-111937676D01*
X108699524Y-111937676D02*
X108604286Y-112032914D01*
X108604286Y-112032914D02*
X108509048Y-112080533D01*
X110032857Y-112794819D02*
X109461429Y-112794819D01*
X109747143Y-112794819D02*
X109747143Y-111794819D01*
X109747143Y-111794819D02*
X109651905Y-111937676D01*
X109651905Y-111937676D02*
X109556667Y-112032914D01*
X109556667Y-112032914D02*
X109461429Y-112080533D01*
X155157142Y-114754819D02*
X154585714Y-114754819D01*
X154871428Y-114754819D02*
X154871428Y-113754819D01*
X154871428Y-113754819D02*
X154776190Y-113897676D01*
X154776190Y-113897676D02*
X154680952Y-113992914D01*
X154680952Y-113992914D02*
X154585714Y-114040533D01*
X155585714Y-114088152D02*
X155585714Y-114754819D01*
X155585714Y-114183390D02*
X155633333Y-114135771D01*
X155633333Y-114135771D02*
X155728571Y-114088152D01*
X155728571Y-114088152D02*
X155871428Y-114088152D01*
X155871428Y-114088152D02*
X155966666Y-114135771D01*
X155966666Y-114135771D02*
X156014285Y-114231009D01*
X156014285Y-114231009D02*
X156014285Y-114754819D01*
X156395238Y-113754819D02*
X157061904Y-113754819D01*
X157061904Y-113754819D02*
X156633333Y-114754819D01*
X157871428Y-114088152D02*
X157871428Y-114754819D01*
X157633333Y-113707200D02*
X157395238Y-114421485D01*
X157395238Y-114421485D02*
X158014285Y-114421485D01*
X158823809Y-113754819D02*
X158633333Y-113754819D01*
X158633333Y-113754819D02*
X158538095Y-113802438D01*
X158538095Y-113802438D02*
X158490476Y-113850057D01*
X158490476Y-113850057D02*
X158395238Y-113992914D01*
X158395238Y-113992914D02*
X158347619Y-114183390D01*
X158347619Y-114183390D02*
X158347619Y-114564342D01*
X158347619Y-114564342D02*
X158395238Y-114659580D01*
X158395238Y-114659580D02*
X158442857Y-114707200D01*
X158442857Y-114707200D02*
X158538095Y-114754819D01*
X158538095Y-114754819D02*
X158728571Y-114754819D01*
X158728571Y-114754819D02*
X158823809Y-114707200D01*
X158823809Y-114707200D02*
X158871428Y-114659580D01*
X158871428Y-114659580D02*
X158919047Y-114564342D01*
X158919047Y-114564342D02*
X158919047Y-114326247D01*
X158919047Y-114326247D02*
X158871428Y-114231009D01*
X158871428Y-114231009D02*
X158823809Y-114183390D01*
X158823809Y-114183390D02*
X158728571Y-114135771D01*
X158728571Y-114135771D02*
X158538095Y-114135771D01*
X158538095Y-114135771D02*
X158442857Y-114183390D01*
X158442857Y-114183390D02*
X158395238Y-114231009D01*
X158395238Y-114231009D02*
X158347619Y-114326247D01*
X159776190Y-114754819D02*
X159776190Y-114231009D01*
X159776190Y-114231009D02*
X159728571Y-114135771D01*
X159728571Y-114135771D02*
X159633333Y-114088152D01*
X159633333Y-114088152D02*
X159442857Y-114088152D01*
X159442857Y-114088152D02*
X159347619Y-114135771D01*
X159776190Y-114707200D02*
X159680952Y-114754819D01*
X159680952Y-114754819D02*
X159442857Y-114754819D01*
X159442857Y-114754819D02*
X159347619Y-114707200D01*
X159347619Y-114707200D02*
X159300000Y-114611961D01*
X159300000Y-114611961D02*
X159300000Y-114516723D01*
X159300000Y-114516723D02*
X159347619Y-114421485D01*
X159347619Y-114421485D02*
X159442857Y-114373866D01*
X159442857Y-114373866D02*
X159680952Y-114373866D01*
X159680952Y-114373866D02*
X159776190Y-114326247D01*
X160919048Y-113754819D02*
X161538095Y-113754819D01*
X161538095Y-113754819D02*
X161204762Y-114135771D01*
X161204762Y-114135771D02*
X161347619Y-114135771D01*
X161347619Y-114135771D02*
X161442857Y-114183390D01*
X161442857Y-114183390D02*
X161490476Y-114231009D01*
X161490476Y-114231009D02*
X161538095Y-114326247D01*
X161538095Y-114326247D02*
X161538095Y-114564342D01*
X161538095Y-114564342D02*
X161490476Y-114659580D01*
X161490476Y-114659580D02*
X161442857Y-114707200D01*
X161442857Y-114707200D02*
X161347619Y-114754819D01*
X161347619Y-114754819D02*
X161061905Y-114754819D01*
X161061905Y-114754819D02*
X160966667Y-114707200D01*
X160966667Y-114707200D02*
X160919048Y-114659580D01*
X161966667Y-114659580D02*
X162014286Y-114707200D01*
X162014286Y-114707200D02*
X161966667Y-114754819D01*
X161966667Y-114754819D02*
X161919048Y-114707200D01*
X161919048Y-114707200D02*
X161966667Y-114659580D01*
X161966667Y-114659580D02*
X161966667Y-114754819D01*
X162347619Y-113754819D02*
X162966666Y-113754819D01*
X162966666Y-113754819D02*
X162633333Y-114135771D01*
X162633333Y-114135771D02*
X162776190Y-114135771D01*
X162776190Y-114135771D02*
X162871428Y-114183390D01*
X162871428Y-114183390D02*
X162919047Y-114231009D01*
X162919047Y-114231009D02*
X162966666Y-114326247D01*
X162966666Y-114326247D02*
X162966666Y-114564342D01*
X162966666Y-114564342D02*
X162919047Y-114659580D01*
X162919047Y-114659580D02*
X162871428Y-114707200D01*
X162871428Y-114707200D02*
X162776190Y-114754819D01*
X162776190Y-114754819D02*
X162490476Y-114754819D01*
X162490476Y-114754819D02*
X162395238Y-114707200D01*
X162395238Y-114707200D02*
X162347619Y-114659580D01*
X163300000Y-114088152D02*
X163538095Y-114754819D01*
X163538095Y-114754819D02*
X163776190Y-114088152D01*
X165109524Y-113754819D02*
X165204762Y-113754819D01*
X165204762Y-113754819D02*
X165300000Y-113802438D01*
X165300000Y-113802438D02*
X165347619Y-113850057D01*
X165347619Y-113850057D02*
X165395238Y-113945295D01*
X165395238Y-113945295D02*
X165442857Y-114135771D01*
X165442857Y-114135771D02*
X165442857Y-114373866D01*
X165442857Y-114373866D02*
X165395238Y-114564342D01*
X165395238Y-114564342D02*
X165347619Y-114659580D01*
X165347619Y-114659580D02*
X165300000Y-114707200D01*
X165300000Y-114707200D02*
X165204762Y-114754819D01*
X165204762Y-114754819D02*
X165109524Y-114754819D01*
X165109524Y-114754819D02*
X165014286Y-114707200D01*
X165014286Y-114707200D02*
X164966667Y-114659580D01*
X164966667Y-114659580D02*
X164919048Y-114564342D01*
X164919048Y-114564342D02*
X164871429Y-114373866D01*
X164871429Y-114373866D02*
X164871429Y-114135771D01*
X164871429Y-114135771D02*
X164919048Y-113945295D01*
X164919048Y-113945295D02*
X164966667Y-113850057D01*
X164966667Y-113850057D02*
X165014286Y-113802438D01*
X165014286Y-113802438D02*
X165109524Y-113754819D01*
X165871429Y-114659580D02*
X165919048Y-114707200D01*
X165919048Y-114707200D02*
X165871429Y-114754819D01*
X165871429Y-114754819D02*
X165823810Y-114707200D01*
X165823810Y-114707200D02*
X165871429Y-114659580D01*
X165871429Y-114659580D02*
X165871429Y-114754819D01*
X166823809Y-113754819D02*
X166347619Y-113754819D01*
X166347619Y-113754819D02*
X166300000Y-114231009D01*
X166300000Y-114231009D02*
X166347619Y-114183390D01*
X166347619Y-114183390D02*
X166442857Y-114135771D01*
X166442857Y-114135771D02*
X166680952Y-114135771D01*
X166680952Y-114135771D02*
X166776190Y-114183390D01*
X166776190Y-114183390D02*
X166823809Y-114231009D01*
X166823809Y-114231009D02*
X166871428Y-114326247D01*
X166871428Y-114326247D02*
X166871428Y-114564342D01*
X166871428Y-114564342D02*
X166823809Y-114659580D01*
X166823809Y-114659580D02*
X166776190Y-114707200D01*
X166776190Y-114707200D02*
X166680952Y-114754819D01*
X166680952Y-114754819D02*
X166442857Y-114754819D01*
X166442857Y-114754819D02*
X166347619Y-114707200D01*
X166347619Y-114707200D02*
X166300000Y-114659580D01*
X167204762Y-113754819D02*
X167442857Y-114754819D01*
X167442857Y-114754819D02*
X167633333Y-114040533D01*
X167633333Y-114040533D02*
X167823809Y-114754819D01*
X167823809Y-114754819D02*
X168061905Y-113754819D01*
D10*
X159351905Y-116852219D02*
X159351905Y-115852219D01*
X159351905Y-115852219D02*
X159590000Y-115852219D01*
X159590000Y-115852219D02*
X159732857Y-115899838D01*
X159732857Y-115899838D02*
X159828095Y-115995076D01*
X159828095Y-115995076D02*
X159875714Y-116090314D01*
X159875714Y-116090314D02*
X159923333Y-116280790D01*
X159923333Y-116280790D02*
X159923333Y-116423647D01*
X159923333Y-116423647D02*
X159875714Y-116614123D01*
X159875714Y-116614123D02*
X159828095Y-116709361D01*
X159828095Y-116709361D02*
X159732857Y-116804600D01*
X159732857Y-116804600D02*
X159590000Y-116852219D01*
X159590000Y-116852219D02*
X159351905Y-116852219D01*
X160875714Y-116852219D02*
X160304286Y-116852219D01*
X160590000Y-116852219D02*
X160590000Y-115852219D01*
X160590000Y-115852219D02*
X160494762Y-115995076D01*
X160494762Y-115995076D02*
X160399524Y-116090314D01*
X160399524Y-116090314D02*
X160304286Y-116137933D01*
D11*
X162454819Y-109833333D02*
X163169104Y-109833333D01*
X163169104Y-109833333D02*
X163311961Y-109880952D01*
X163311961Y-109880952D02*
X163407200Y-109976190D01*
X163407200Y-109976190D02*
X163454819Y-110119047D01*
X163454819Y-110119047D02*
X163454819Y-110214285D01*
X162550057Y-109404761D02*
X162502438Y-109357142D01*
X162502438Y-109357142D02*
X162454819Y-109261904D01*
X162454819Y-109261904D02*
X162454819Y-109023809D01*
X162454819Y-109023809D02*
X162502438Y-108928571D01*
X162502438Y-108928571D02*
X162550057Y-108880952D01*
X162550057Y-108880952D02*
X162645295Y-108833333D01*
X162645295Y-108833333D02*
X162740533Y-108833333D01*
X162740533Y-108833333D02*
X162883390Y-108880952D01*
X162883390Y-108880952D02*
X163454819Y-109452380D01*
X163454819Y-109452380D02*
X163454819Y-108833333D01*
X165369104Y-112580952D02*
X165369104Y-112104762D01*
X165654819Y-112676190D02*
X164654819Y-112342857D01*
X164654819Y-112342857D02*
X165654819Y-112009524D01*
X164988152Y-111247619D02*
X165654819Y-111247619D01*
X164988152Y-111676190D02*
X165511961Y-111676190D01*
X165511961Y-111676190D02*
X165607200Y-111628571D01*
X165607200Y-111628571D02*
X165654819Y-111533333D01*
X165654819Y-111533333D02*
X165654819Y-111390476D01*
X165654819Y-111390476D02*
X165607200Y-111295238D01*
X165607200Y-111295238D02*
X165559580Y-111247619D01*
X165654819Y-110342857D02*
X164654819Y-110342857D01*
X165607200Y-110342857D02*
X165654819Y-110438095D01*
X165654819Y-110438095D02*
X165654819Y-110628571D01*
X165654819Y-110628571D02*
X165607200Y-110723809D01*
X165607200Y-110723809D02*
X165559580Y-110771428D01*
X165559580Y-110771428D02*
X165464342Y-110819047D01*
X165464342Y-110819047D02*
X165178628Y-110819047D01*
X165178628Y-110819047D02*
X165083390Y-110771428D01*
X165083390Y-110771428D02*
X165035771Y-110723809D01*
X165035771Y-110723809D02*
X164988152Y-110628571D01*
X164988152Y-110628571D02*
X164988152Y-110438095D01*
X164988152Y-110438095D02*
X165035771Y-110342857D01*
X165654819Y-109866666D02*
X164988152Y-109866666D01*
X164654819Y-109866666D02*
X164702438Y-109914285D01*
X164702438Y-109914285D02*
X164750057Y-109866666D01*
X164750057Y-109866666D02*
X164702438Y-109819047D01*
X164702438Y-109819047D02*
X164654819Y-109866666D01*
X164654819Y-109866666D02*
X164750057Y-109866666D01*
X165654819Y-109247619D02*
X165607200Y-109342857D01*
X165607200Y-109342857D02*
X165559580Y-109390476D01*
X165559580Y-109390476D02*
X165464342Y-109438095D01*
X165464342Y-109438095D02*
X165178628Y-109438095D01*
X165178628Y-109438095D02*
X165083390Y-109390476D01*
X165083390Y-109390476D02*
X165035771Y-109342857D01*
X165035771Y-109342857D02*
X164988152Y-109247619D01*
X164988152Y-109247619D02*
X164988152Y-109104762D01*
X164988152Y-109104762D02*
X165035771Y-109009524D01*
X165035771Y-109009524D02*
X165083390Y-108961905D01*
X165083390Y-108961905D02*
X165178628Y-108914286D01*
X165178628Y-108914286D02*
X165464342Y-108914286D01*
X165464342Y-108914286D02*
X165559580Y-108961905D01*
X165559580Y-108961905D02*
X165607200Y-109009524D01*
X165607200Y-109009524D02*
X165654819Y-109104762D01*
X165654819Y-109104762D02*
X165654819Y-109247619D01*
X164654819Y-107438095D02*
X165369104Y-107438095D01*
X165369104Y-107438095D02*
X165511961Y-107485714D01*
X165511961Y-107485714D02*
X165607200Y-107580952D01*
X165607200Y-107580952D02*
X165654819Y-107723809D01*
X165654819Y-107723809D02*
X165654819Y-107819047D01*
X165654819Y-106533333D02*
X165131009Y-106533333D01*
X165131009Y-106533333D02*
X165035771Y-106580952D01*
X165035771Y-106580952D02*
X164988152Y-106676190D01*
X164988152Y-106676190D02*
X164988152Y-106866666D01*
X164988152Y-106866666D02*
X165035771Y-106961904D01*
X165607200Y-106533333D02*
X165654819Y-106628571D01*
X165654819Y-106628571D02*
X165654819Y-106866666D01*
X165654819Y-106866666D02*
X165607200Y-106961904D01*
X165607200Y-106961904D02*
X165511961Y-107009523D01*
X165511961Y-107009523D02*
X165416723Y-107009523D01*
X165416723Y-107009523D02*
X165321485Y-106961904D01*
X165321485Y-106961904D02*
X165273866Y-106866666D01*
X165273866Y-106866666D02*
X165273866Y-106628571D01*
X165273866Y-106628571D02*
X165226247Y-106533333D01*
X165607200Y-105628571D02*
X165654819Y-105723809D01*
X165654819Y-105723809D02*
X165654819Y-105914285D01*
X165654819Y-105914285D02*
X165607200Y-106009523D01*
X165607200Y-106009523D02*
X165559580Y-106057142D01*
X165559580Y-106057142D02*
X165464342Y-106104761D01*
X165464342Y-106104761D02*
X165178628Y-106104761D01*
X165178628Y-106104761D02*
X165083390Y-106057142D01*
X165083390Y-106057142D02*
X165035771Y-106009523D01*
X165035771Y-106009523D02*
X164988152Y-105914285D01*
X164988152Y-105914285D02*
X164988152Y-105723809D01*
X164988152Y-105723809D02*
X165035771Y-105628571D01*
X165654819Y-105199999D02*
X164654819Y-105199999D01*
X165273866Y-105104761D02*
X165654819Y-104819047D01*
X164988152Y-104819047D02*
X165369104Y-105199999D01*
%TO.C,R2*%
D12*
X116730000Y-105630000D02*
X123270000Y-105630000D01*
X116730000Y-105960000D02*
X116730000Y-105630000D01*
X116730000Y-108040000D02*
X116730000Y-108370000D01*
X116730000Y-108370000D02*
X123270000Y-108370000D01*
X123270000Y-105630000D02*
X123270000Y-105960000D01*
X123270000Y-108370000D02*
X123270000Y-108040000D01*
%TO.C,T1*%
X134104000Y-99940000D02*
X153876000Y-99940000D01*
X134104000Y-118040000D02*
X134104000Y-99940000D01*
X153876000Y-99940000D02*
X153876000Y-118040000D01*
X153876000Y-118040000D02*
X134104000Y-118040000D01*
%TO.C,D2*%
X157620000Y-102000000D02*
X158270000Y-102000000D01*
X161670000Y-103120000D02*
X161670000Y-100880000D01*
X161790000Y-103120000D02*
X161790000Y-100880000D01*
X161910000Y-103120000D02*
X161910000Y-100880000D01*
X163160000Y-102000000D02*
X162510000Y-102000000D01*
X158270000Y-100880000D02*
X162510000Y-100880000D01*
X162510000Y-103120000D01*
X158270000Y-103120000D01*
X158270000Y-100880000D01*
%TO.C,R1*%
X130120000Y-104350000D02*
X130120000Y-110890000D01*
X130120000Y-110890000D02*
X132860000Y-110890000D01*
X131490000Y-103580000D02*
X131490000Y-104350000D01*
X131490000Y-111660000D02*
X131490000Y-110890000D01*
X132860000Y-104350000D02*
X130120000Y-104350000D01*
X132860000Y-110890000D02*
X132860000Y-104350000D01*
%TO.C,C1*%
X123960000Y-100000000D02*
X122020000Y-100000000D01*
X116040000Y-100000000D02*
X117980000Y-100000000D01*
X117980000Y-98580000D02*
X122020000Y-98580000D01*
X122020000Y-101420000D01*
X117980000Y-101420000D01*
X117980000Y-98580000D01*
%TO.C,RV1*%
D11*
X116000000Y-112950000D02*
X116000000Y-118050000D01*
X116000000Y-112950000D02*
X123000000Y-112950000D01*
X116000000Y-118050000D02*
X123000000Y-118050000D01*
X123000000Y-112950000D02*
X123000000Y-118050000D01*
%TO.C,J1*%
D12*
X107060000Y-108300000D02*
X107060000Y-110900000D01*
X107060000Y-108300000D02*
X109720000Y-108300000D01*
X107060000Y-110900000D02*
X109720000Y-110900000D01*
X108390000Y-105700000D02*
X109720000Y-105700000D01*
X109720000Y-105700000D02*
X109720000Y-107030000D01*
X109720000Y-108300000D02*
X109720000Y-110900000D01*
%TO.C,D1*%
X157620000Y-116400000D02*
X158270000Y-116400000D01*
X161670000Y-117520000D02*
X161670000Y-115280000D01*
X161790000Y-117520000D02*
X161790000Y-115280000D01*
X161910000Y-117520000D02*
X161910000Y-115280000D01*
X163160000Y-116400000D02*
X162510000Y-116400000D01*
X158270000Y-115280000D02*
X162510000Y-115280000D01*
X162510000Y-117520000D01*
X158270000Y-117520000D01*
X158270000Y-115280000D01*
%TO.C,J2*%
X158760000Y-109200000D02*
X158760000Y-106600000D01*
X158760000Y-111800000D02*
X158760000Y-110470000D01*
X160090000Y-111800000D02*
X158760000Y-111800000D01*
X161420000Y-106600000D02*
X158760000Y-106600000D01*
X161420000Y-109200000D02*
X158760000Y-109200000D01*
X161420000Y-109200000D02*
X161420000Y-106600000D01*
%TD*%
M02*
